<svg xmlns="http://www.w3.org/2000/svg" version="1.1" xmlns:xlink="http://www.w3.org/1999/xlink" xmlns:svgjs="http://svgjs.dev/svgjs" width="1500" height="1154" viewBox="0 0 1500 1154"><g transform="matrix(1,0,0,1,0.6975427504359004,0.467206477732816)"><svg viewBox="0 0 321 247" data-background-color="#be7034" preserveAspectRatio="xMidYMid meet" height="1154" width="1500" xmlns="http://www.w3.org/2000/svg" xmlns:xlink="http://www.w3.org/1999/xlink"><g id="tight-bounds" transform="matrix(1,0,0,1,-0.14927414859329247,-0.09999999999999432)"><svg viewBox="0 0 321.2985482971866 247.2" height="247.2" width="321.2985482971866"><g><svg viewBox="0 0 395.52 304.30434410044336" height="247.2" width="321.2985482971866"><g transform="matrix(1,0,0,1,0,245.8763020934422)"><svg viewBox="0 0 395.52 58.42804200700116" height="58.42804200700116" width="395.52"><g id="textblocktransform"><svg viewBox="0 0 395.52 58.42804200700116" height="58.42804200700116" width="395.52" id="textblock"><g><svg viewBox="0 0 395.52 58.42804200700116" height="58.42804200700116" width="395.52"><g transform="matrix(1,0,0,1,0,0)"><svg width="395.52" viewBox="4.45 -30.95 214.23000000000002 31.65" height="58.42804200700116" data-palette-color="#e5dac4"><path d="M8.5-27.1L8.5-14.9 14.25-14.9Q17.95-14.9 20.05-16.5 22.15-18.1 22.15-21.25L22.15-21.25Q22.15-24.35 19.95-25.95 17.75-27.55 13.65-27.55L13.65-27.55Q12.3-27.55 10.93-27.43 9.55-27.3 8.5-27.1L8.5-27.1ZM14.25-11.5L14.25-11.5 4.45-11.5 4.45-28.2Q4.45-29 4.88-29.43 5.3-29.85 6.1-30.1L6.1-30.1Q7.55-30.55 9.68-30.75 11.8-30.95 13.8-30.95L13.8-30.95Q20.05-30.95 23.15-28.4 26.25-25.85 26.25-21.25L26.25-21.25Q26.25-18.3 24.9-16.1 23.55-13.9 20.9-12.7 18.25-11.5 14.25-11.5ZM22.55-1.3L14.35-12.8 17.35-14.3Q18.75-12.55 20.25-10.65 21.75-8.75 23.15-6.95 24.55-5.15 25.65-3.73 26.75-2.3 27.35-1.5L27.35-1.5Q27.15-0.65 26.48-0.15 25.8 0.35 25.1 0.35L25.1 0.35Q24.25 0.35 23.7-0.08 23.15-0.5 22.55-1.3L22.55-1.3ZM4.45-1.6L4.45-12.6 8.55-12.6 8.55-0.1Q8.25 0 7.75 0.13 7.25 0.25 6.65 0.25L6.65 0.25Q5.55 0.25 5-0.2 4.45-0.65 4.45-1.6L4.45-1.6ZM51.45-11.35L34.65-9 34.45-12.15 49.55-14.2Q49.35-16.95 47.65-18.73 45.95-20.5 42.95-20.5L42.95-20.5Q39.85-20.5 37.82-18.28 35.8-16.05 35.8-11.9L35.8-11.9 35.8-10.8Q36.15-6.8 38.42-4.73 40.7-2.65 44.65-2.65L44.65-2.65Q46.75-2.65 48.45-3.35 50.15-4.05 51.15-4.85L51.15-4.85Q51.7-4.5 52.02-4.03 52.35-3.55 52.35-2.95L52.35-2.95Q52.35-2 51.27-1.18 50.2-0.35 48.42 0.15 46.65 0.65 44.45 0.65L44.45 0.65Q40.6 0.65 37.77-0.75 34.95-2.15 33.42-4.93 31.9-7.7 31.9-11.7L31.9-11.7Q31.9-14.55 32.72-16.78 33.55-19 35.02-20.55 36.5-22.1 38.55-22.93 40.6-23.75 43-23.75L43-23.75Q46.05-23.75 48.37-22.45 50.7-21.15 52.02-18.82 53.35-16.5 53.35-13.5L53.35-13.5Q53.35-12.4 52.85-11.93 52.35-11.45 51.45-11.35L51.45-11.35ZM79.15-15.25L79.15-15.25 79.15-10.15 75.15-10.15 75.15-15.05Q75.15-17.85 73.57-19.15 72-20.45 69.35-20.45L69.35-20.45Q67.35-20.45 65.8-19.95 64.25-19.45 63.15-18.8L63.15-18.8 63.15-10.15 59.15-10.15 59.15-18.6Q59.15-19.65 59.57-20.33 60-21 61.05-21.65L61.05-21.65Q62.35-22.4 64.5-23.08 66.65-23.75 69.35-23.75L69.35-23.75Q73.9-23.75 76.52-21.68 79.15-19.6 79.15-15.25ZM59.15-1.55L59.15-12.9 63.15-12.9 63.15-0.1Q62.9 0 62.4 0.13 61.9 0.25 61.3 0.25L61.3 0.25Q60.25 0.25 59.7-0.18 59.15-0.6 59.15-1.55L59.15-1.55ZM75.15-1.55L75.15-12.9 79.15-12.9 79.15-0.1Q78.9 0 78.37 0.13 77.85 0.25 77.3 0.25L77.3 0.25Q76.2 0.25 75.67-0.18 75.15-0.6 75.15-1.55L75.15-1.55ZM86.69-6.05L86.69-13.2 90.69-13.2 90.69-6.3Q90.69-4.3 91.84-3.48 92.99-2.65 94.99-2.65L94.99-2.65Q95.84-2.65 96.89-2.95 97.94-3.25 98.64-3.65L98.64-3.65Q98.94-3.35 99.19-2.9 99.44-2.45 99.44-1.85L99.44-1.85Q99.44-0.75 98.14-0.05 96.84 0.65 94.54 0.65L94.54 0.65Q91.04 0.65 88.87-0.9 86.69-2.45 86.69-6.05L86.69-6.05ZM97.84-19.3L88.74-19.3 88.74-22.6 98.89-22.6Q99.04-22.4 99.19-21.95 99.34-21.5 99.34-21L99.34-21Q99.34-20.2 98.94-19.75 98.54-19.3 97.84-19.3L97.84-19.3ZM90.69-28.35L90.69-11.7 86.69-11.7 86.69-29.8Q86.94-29.9 87.47-30.03 87.99-30.15 88.59-30.15L88.59-30.15Q89.64-30.15 90.17-29.73 90.69-29.3 90.69-28.35L90.69-28.35ZM116.49-11.4L116.49-11.4 104.54-11.4Q104.39-11.75 104.29-12.13 104.19-12.5 104.19-13L104.19-13Q104.19-13.85 104.67-14.28 105.14-14.7 105.94-14.7L105.94-14.7 117.89-14.7Q117.99-14.4 118.12-14 118.24-13.6 118.24-13.15L118.24-13.15Q118.24-12.35 117.79-11.88 117.34-11.4 116.49-11.4ZM125.39-2.2L125.39-18.3 129.44-18.3 129.44-0.4Q129.24-0.35 128.69-0.18 128.14 0 127.59 0L127.59 0Q126.59 0 125.99-0.63 125.39-1.25 125.39-2.2L125.39-2.2ZM129.44-30L129.44-12.4 125.39-12.45 125.39-28.2Q125.39-29.2 125.99-29.8 126.59-30.4 127.59-30.4L127.59-30.4Q128.14-30.4 128.69-30.25 129.24-30.1 129.44-30L129.44-30ZM141.54-13.9L127.59-13.9 127.59-17.3 142.64-17.3Q142.79-17.1 142.94-16.65 143.09-16.2 143.09-15.7L143.09-15.7Q143.09-14.9 142.69-14.4 142.29-13.9 141.54-13.9L141.54-13.9ZM143.34 0L127.59 0 127.59-3.4 144.44-3.4Q144.59-3.2 144.74-2.78 144.89-2.35 144.89-1.8L144.89-1.8Q144.89-1 144.49-0.5 144.09 0 143.34 0L143.34 0ZM143.09-26.95L127.59-26.95 127.59-30.4 144.19-30.4Q144.34-30.2 144.49-29.75 144.64-29.3 144.64-28.8L144.64-28.8Q144.64-28 144.24-27.48 143.84-26.95 143.09-26.95L143.09-26.95ZM159.49 0.7L159.49 0.7Q154.79 0.7 152.21-1.15 149.64-3 149.64-6.5L149.64-6.5Q149.64-9.75 151.81-11.48 153.99-13.2 157.84-13.55L157.84-13.55 164.94-14.25 164.94-15.65Q164.94-18.15 163.44-19.3 161.94-20.45 159.39-20.45L159.39-20.45Q157.34-20.45 155.46-19.85 153.59-19.25 152.14-18.5L152.14-18.5Q151.74-18.85 151.41-19.33 151.09-19.8 151.09-20.3L151.09-20.3Q151.09-21.6 152.54-22.3L152.54-22.3Q153.89-23 155.66-23.38 157.44-23.75 159.44-23.75L159.44-23.75Q163.79-23.75 166.34-21.8 168.89-19.85 168.89-15.65L168.89-15.65 168.89-3.8Q168.89-2.7 168.46-2.13 168.04-1.55 167.19-1.05L167.19-1.05Q165.99-0.4 163.99 0.15 161.99 0.7 159.49 0.7ZM159.49-2.6L159.49-2.6Q161.59-2.6 162.96-3.03 164.34-3.45 164.94-3.85L164.94-3.85 164.94-11.1 158.74-10.45Q156.14-10.25 154.89-9.3 153.64-8.35 153.64-6.55L153.64-6.55Q153.64-4.7 155.11-3.65 156.59-2.6 159.49-2.6ZM192.48-6.15L192.48-6.15Q192.48-2.95 190.13-1.15 187.78 0.65 183.33 0.65L183.33 0.65Q179.53 0.65 177.13-0.53 174.73-1.7 174.73-3.1L174.73-3.1Q174.73-3.7 175.06-4.28 175.38-4.85 176.03-5.2L176.03-5.2Q177.38-4.25 179.18-3.45 180.98-2.65 183.28-2.65L183.28-2.65Q188.48-2.65 188.48-6.15L188.48-6.15Q188.48-7.6 187.61-8.53 186.73-9.45 185.03-9.85L185.03-9.85 180.88-10.95Q177.83-11.7 176.43-13.28 175.03-14.85 175.03-17.2L175.03-17.2Q175.03-19.85 177.18-21.8 179.33-23.75 183.73-23.75L183.73-23.75Q186.08-23.75 187.83-23.28 189.58-22.8 190.56-22.03 191.53-21.25 191.53-20.35L191.53-20.35Q191.53-19.7 191.21-19.2 190.88-18.7 190.33-18.45L190.33-18.45Q189.73-18.85 188.81-19.33 187.88-19.8 186.63-20.13 185.38-20.45 183.88-20.45L183.88-20.45Q181.68-20.45 180.33-19.6 178.98-18.75 178.98-17.2L178.98-17.2Q178.98-16.1 179.76-15.28 180.53-14.45 182.23-14.05L182.23-14.05 185.68-13.2Q189.08-12.4 190.78-10.68 192.48-8.95 192.48-6.15ZM216.78-11.35L199.98-9 199.78-12.15 214.88-14.2Q214.68-16.95 212.98-18.73 211.28-20.5 208.28-20.5L208.28-20.5Q205.18-20.5 203.16-18.28 201.13-16.05 201.13-11.9L201.13-11.9 201.13-10.8Q201.48-6.8 203.75-4.73 206.03-2.65 209.98-2.65L209.98-2.65Q212.08-2.65 213.78-3.35 215.48-4.05 216.48-4.85L216.48-4.85Q217.03-4.5 217.36-4.03 217.68-3.55 217.68-2.95L217.68-2.95Q217.68-2 216.61-1.18 215.53-0.35 213.75 0.15 211.98 0.65 209.78 0.65L209.78 0.65Q205.93 0.65 203.1-0.75 200.28-2.15 198.75-4.93 197.23-7.7 197.23-11.7L197.23-11.7Q197.23-14.55 198.06-16.78 198.88-19 200.35-20.55 201.83-22.1 203.88-22.93 205.93-23.75 208.33-23.75L208.33-23.75Q211.38-23.75 213.71-22.45 216.03-21.15 217.36-18.82 218.68-16.5 218.68-13.5L218.68-13.5Q218.68-12.4 218.18-11.93 217.68-11.45 216.78-11.35L216.78-11.35Z" opacity="1" transform="matrix(1,0,0,1,0,0)" fill="#e5dac4" class="wordmark-text-0" data-fill-palette-color="primary" id="text-0"></path></svg></g></svg></g></svg></g></svg></g><g transform="matrix(1,0,0,1,92.0636720093349,0)"><svg viewBox="0 0 211.3926559813302 211.3926559813302" height="211.3926559813302" width="211.3926559813302"><g><svg viewBox="0 0 211.3926559813302 211.3926559813302" height="211.3926559813302" width="211.3926559813302"><g transform="matrix(1,0,0,1,55.87060114485391,56.10220726834338)"><svg viewBox="0 0 99.65145369162238 99.18824144464344" height="99.18824144464344" width="99.65145369162238"><g><svg xmlns="http://www.w3.org/2000/svg" xmlns:xlink="http://www.w3.org/1999/xlink" version="1.1" x="0" y="0" viewBox="0.4704716829050877 0.7 71.03017125199953 70.69999999999999" enable-background="new 0 0 72 72" xml:space="preserve" height="99.18824144464344" width="99.65145369162238" class="icon-cg-0" data-fill-palette-color="accent" id="cg-0"><g fill="#d3ba92" data-fill-palette-color="accent"><path fill="#d3ba92" d="M24.3 64.8l-4.4 5.7c-0.2 0.3 0 0.8 0.4 0.8H24c0.5 0 1-0.4 1-1 0-1.8 0-5.3 0-5.3C25 64.7 24.5 64.5 24.3 64.8z" data-fill-palette-color="accent"></path><path fill="#d3ba92" d="M47.8 65.1c0 0 0 3.5 0 5.3 0 0.5 0.4 1 1 1h3.7c0.4 0 0.6-0.5 0.4-0.8l-4.4-5.7C48.3 64.5 47.8 64.7 47.8 65.1z" data-fill-palette-color="accent"></path><path fill="#d3ba92" d="M71 27.5L36.8 1c-0.5-0.4-1.2-0.4-1.6 0L1 27.5c-1 0.8-0.5 2.4 0.8 2.4h5.8c0.7 0 1.3 0.6 1.3 1.3V70c0 0.7 0.6 1.3 1.3 1.3H13c0-0.1 0-0.2 0.1-0.3l14.6-19.1c0.1-0.1 0.2-0.2 0.3-0.3 1.6-1.9 3.7-3.2 6-3.7 0.1 0 0.2 0 0.3 0.1l0.8 0.9c0.1 0.1 0.1 0.2 0.1 0.3L33.7 67c0 0.1 0 0.2 0.1 0.3l2.4 2.8c0.1 0.1 0.3 0.1 0.5 0l2.4-2.8c0.1-0.1 0.1-0.2 0.1-0.3l-1.4-17.8c0-0.1 0-0.2 0.1-0.3l0.8-0.9c0.1-0.1 0.2-0.1 0.3-0.1 2.4 0.5 4.5 1.9 6 3.7 0.1 0.1 0.2 0.2 0.3 0.3L59.7 71c0.1 0.1 0.1 0.2 0.1 0.3h1.9c0.7 0 1.3-0.6 1.3-1.3V31.2c0-0.7 0.6-1.3 1.3-1.3h5.8C71.4 29.9 72 28.3 71 27.5zM36.4 44.4c-4.4 0-8-3.9-8-8.7s3.6-8.7 8-8.7c4.4 0 8 3.9 8 8.7S40.8 44.4 36.4 44.4z" data-fill-palette-color="accent"></path></g></svg></g></svg></g><g id="text-0"><path d="M3.339 74.112l6.464 2.166 1.02-3.044c0.438-1.308 0.498-2.427 0.179-3.357-0.312-0.929-1.026-1.579-2.14-1.953v0c-1.095-0.367-2.055-0.259-2.881 0.324-0.822 0.592-1.475 1.612-1.961 3.062v0c-0.16 0.477-0.298 0.964-0.414 1.462-0.123 0.496-0.212 0.943-0.267 1.34zM12.63 73.84v0l-1.739 5.188-8.85-2.965c-0.283-0.095-0.474-0.241-0.573-0.439-0.096-0.204-0.143-0.46-0.141-0.767v0c0.012-0.569 0.107-1.239 0.287-2.011 0.182-0.777 0.39-1.517 0.625-2.219v0c0.74-2.209 1.745-3.711 3.014-4.503 1.269-0.793 2.715-0.917 4.338-0.374v0c1.044 0.35 1.872 0.892 2.485 1.628 0.62 0.738 0.986 1.645 1.098 2.721 0.11 1.083-0.071 2.33-0.544 3.741zM19.504 71.253l-7.55 2.296-0.262-1.85c0.785-0.289 1.6-0.585 2.447-0.889 0.847-0.304 1.672-0.597 2.477-0.879 0.804-0.282 1.522-0.533 2.153-0.751 0.632-0.218 1.125-0.386 1.48-0.504v0c0.273 0.17 0.459 0.405 0.56 0.704 0.094 0.297 0.1 0.567 0.018 0.812v0c-0.101 0.303-0.259 0.526-0.472 0.669-0.213 0.144-0.497 0.274-0.851 0.392zM16.128 80.783l-5.826-1.952 0.728-2.174 6.629 2.221c-0.004 0.12-0.013 0.275-0.027 0.464-0.015 0.195-0.058 0.396-0.126 0.602v0c-0.132 0.393-0.31 0.659-0.536 0.798-0.226 0.139-0.506 0.153-0.842 0.041z" fill="#d3ba92" data-fill-palette-color="accent"></path><path d="M31.497 41.399l-4.695 8.232-1.464-0.989 4.254-7.376c-0.858-0.568-1.74-0.803-2.648-0.705-0.913 0.093-1.712 0.583-2.398 1.47v0c-0.706 0.914-0.961 1.923-0.766 3.026 0.195 1.103 0.906 2.128 2.132 3.075v0l0.484 0.374c1.256 0.807 2.451 1.111 3.583 0.912 1.132-0.199 2.146-0.879 3.043-2.04v0c0.477-0.618 0.806-1.261 0.987-1.929 0.182-0.658 0.269-1.226 0.26-1.704v0c0.227-0.082 0.447-0.118 0.662-0.107 0.21 0.017 0.404 0.093 0.582 0.23v0c0.28 0.216 0.421 0.578 0.423 1.086-0.003 0.504-0.133 1.073-0.391 1.707-0.252 0.638-0.629 1.282-1.132 1.933v0c-0.876 1.135-1.843 1.959-2.9 2.472-1.053 0.508-2.163 0.673-3.329 0.494-1.166-0.179-2.338-0.724-3.516-1.633v0c-0.844-0.652-1.499-1.355-1.964-2.109-0.469-0.748-0.764-1.517-0.885-2.305-0.12-0.779-0.068-1.568 0.154-2.366 0.223-0.789 0.609-1.538 1.156-2.248v0c0.693-0.898 1.495-1.541 2.404-1.93 0.919-0.389 1.871-0.517 2.857-0.382 0.982 0.14 1.916 0.553 2.803 1.238v0c0.323 0.249 0.498 0.5 0.526 0.753 0.024 0.259-0.05 0.532-0.222 0.821z" fill="#d3ba92" data-fill-palette-color="accent"></path><path d="M55.243 19.04v0l1.607 2.357-1.844 1.257-1.544-2.265c-0.589-0.864-1.264-1.329-2.024-1.395-0.754-0.069-1.539 0.173-2.352 0.728v0c-0.617 0.421-1.113 0.87-1.487 1.347-0.37 0.482-0.656 0.937-0.86 1.363v0l2.727 3.999-1.844 1.257-2.663-3.906c-0.218-0.32-0.333-0.628-0.346-0.924-0.012-0.296 0.075-0.656 0.263-1.08v0c0.242-0.502 0.623-1.082 1.143-1.741 0.521-0.659 1.197-1.272 2.028-1.838v0c1.398-0.953 2.719-1.385 3.963-1.296 1.245 0.089 2.322 0.801 3.233 2.137zM50.325 31.654l-3.57-5.237 1.844-1.257 4.03 5.911c-0.059 0.082-0.152 0.194-0.277 0.336-0.13 0.146-0.288 0.283-0.473 0.409v0c-0.32 0.218-0.61 0.317-0.87 0.297-0.256-0.014-0.484-0.167-0.684-0.459zM57.71 26.62l-3.571-5.237 1.844-1.257 4.03 5.911c-0.059 0.082-0.157 0.198-0.293 0.347-0.13 0.146-0.28 0.277-0.449 0.392v0c-0.342 0.233-0.641 0.338-0.895 0.315-0.245-0.022-0.467-0.179-0.666-0.471z" fill="#d3ba92" data-fill-palette-color="accent"></path><path d="M76.796 15.338l-1.147-3.827 2.147-0.644 1.109 3.7c0.213 0.709 0.569 1.152 1.069 1.328 0.498 0.17 1.101 0.148 1.811-0.064v0c0.306-0.092 0.628-0.249 0.965-0.471 0.346-0.217 0.621-0.435 0.826-0.652v0c0.142 0.071 0.283 0.174 0.422 0.31 0.133 0.137 0.232 0.313 0.297 0.528v0c0.117 0.39-0.018 0.779-0.406 1.164-0.386 0.392-0.989 0.711-1.809 0.958v0c-1.249 0.375-2.344 0.402-3.284 0.08-0.947-0.319-1.613-1.123-2-2.41zM80.644 6.46l-4.87 1.461-0.53-1.767 5.427-1.628c0.074 0.056 0.164 0.157 0.271 0.302 0.099 0.141 0.176 0.302 0.23 0.484v0c0.086 0.286 0.081 0.529-0.015 0.728-0.094 0.206-0.265 0.346-0.513 0.42zM75.366 2.766l2.673 8.911-2.147 0.644-2.908-9.692c0.081-0.06 0.21-0.141 0.385-0.243 0.175-0.102 0.367-0.184 0.575-0.247v0c0.377-0.113 0.684-0.12 0.919-0.02 0.234 0.093 0.401 0.309 0.503 0.647z" fill="#d3ba92" data-fill-palette-color="accent"></path><path d="M109.119 7.874v0l-6.675 0.07c-0.056-0.129-0.105-0.264-0.146-0.406-0.035-0.136-0.054-0.298-0.056-0.489v0c-0.003-0.312 0.083-0.551 0.257-0.716 0.175-0.158 0.412-0.239 0.711-0.242v0l6.674-0.069c0.042 0.115 0.084 0.247 0.126 0.396 0.049 0.142 0.074 0.298 0.077 0.468v0c0.003 0.299-0.076 0.537-0.237 0.715-0.168 0.178-0.412 0.269-0.731 0.273z" fill="#d3ba92" data-fill-palette-color="accent"></path><path d="M129.345 16.111l2.544-8.62 2.17 0.641-2.83 9.587c-0.077-0.002-0.223-0.002-0.436-0.001-0.215 0.007-0.42-0.018-0.615-0.075v0c-0.358-0.106-0.612-0.301-0.762-0.586-0.148-0.292-0.172-0.607-0.071-0.946zM135.911 1.857l-2.784 9.432-2.164-0.66 2.493-8.445c0.106-0.358 0.298-0.613 0.576-0.764 0.277-0.145 0.594-0.165 0.953-0.059v0c0.195 0.058 0.383 0.141 0.563 0.251 0.18 0.11 0.301 0.192 0.363 0.245zM139.843 12.4l-7.466-2.204 0.536-1.818 8.063 2.38c0.031 0.087 0.049 0.216 0.055 0.388 0.004 0.178-0.02 0.355-0.071 0.532v0c-0.085 0.287-0.226 0.5-0.423 0.64-0.195 0.134-0.426 0.161-0.694 0.082zM138.612 20.133l-8.434-2.49 0.537-1.818 9.02 2.663c0.031 0.087 0.054 0.214 0.068 0.381 0.008 0.165-0.017 0.346-0.074 0.541v0c-0.085 0.287-0.226 0.5-0.423 0.641-0.195 0.134-0.426 0.161-0.694 0.082zM142.737 5.657l-8.298-2.449 0.546-1.847 8.893 2.625c0.033 0.081 0.051 0.21 0.056 0.388 0.004 0.178-0.02 0.355-0.072 0.532v0c-0.085 0.287-0.227 0.503-0.426 0.65-0.199 0.147-0.432 0.181-0.699 0.101z" fill="#d3ba92" data-fill-palette-color="accent"></path><path d="M159.338 32v0c-1.438-1.002-2.354-2.058-2.749-3.168-0.394-1.11-0.218-2.201 0.528-3.271v0c0.691-0.992 1.553-1.522 2.585-1.59 1.032-0.068 2.173 0.255 3.423 0.969v0l3.482 1.953 0.449-0.644c0.532-0.764 0.689-1.482 0.471-2.156-0.213-0.67-0.709-1.276-1.49-1.819v0c-0.624-0.435-1.288-0.76-1.99-0.976-0.702-0.216-1.353-0.363-1.953-0.442v0c-0.049-0.191-0.073-0.394-0.072-0.609 0.001-0.215 0.055-0.4 0.164-0.556v0c0.276-0.396 0.71-0.544 1.303-0.446v0c0.564 0.07 1.155 0.237 1.774 0.503 0.622 0.26 1.24 0.603 1.853 1.03v0c1.332 0.928 2.178 1.96 2.538 3.096 0.365 1.14 0.101 2.351-0.792 3.633v0l-3.785 5.435c-0.233 0.334-0.476 0.546-0.728 0.636-0.249 0.084-0.556 0.109-0.923 0.077v0c-0.508-0.056-1.124-0.211-1.848-0.467-0.73-0.26-1.476-0.656-2.24-1.188zM160.392 30.487v0c0.641 0.446 1.215 0.751 1.722 0.914 0.513 0.167 0.904 0.253 1.174 0.258v0l2.312-3.319-3.047-1.688c-0.84-0.494-1.55-0.728-2.131-0.702-0.587 0.022-1.072 0.309-1.457 0.861v0c-0.392 0.563-0.475 1.163-0.248 1.801 0.23 0.632 0.789 1.257 1.675 1.875z" fill="#d3ba92" data-fill-palette-color="accent"></path><path d="M185.533 53.406v0c-0.944 0.723-1.949 0.94-3.016 0.653-1.067-0.287-2.102-1.086-3.105-2.397v0c-0.863-1.127-1.39-2.179-1.58-3.154-0.2-0.976-0.092-1.623 0.323-1.941v0c0.178-0.136 0.388-0.22 0.63-0.251 0.247-0.035 0.494 0.003 0.741 0.113v0c0.025 0.614 0.123 1.279 0.294 1.994 0.171 0.716 0.517 1.413 1.038 2.094v0c1.177 1.537 2.283 1.91 3.319 1.117v0c0.432-0.33 0.683-0.728 0.754-1.194 0.077-0.47-0.017-1.001-0.282-1.593v0l-0.927-2.216c-0.468-1.07-0.627-1.993-0.475-2.768 0.15-0.765 0.573-1.414 1.269-1.946v0c0.782-0.599 1.704-0.803 2.764-0.614 1.064 0.195 2.094 0.942 3.089 2.242v0c0.533 0.696 0.927 1.356 1.183 1.982 0.256 0.625 0.38 1.172 0.371 1.641-0.008 0.459-0.144 0.79-0.408 0.992v0c-0.194 0.149-0.401 0.23-0.622 0.245-0.225 0.019-0.438-0.024-0.637-0.128v0c-0.018-0.269-0.059-0.592-0.125-0.969-0.07-0.382-0.199-0.797-0.388-1.244-0.184-0.441-0.445-0.883-0.783-1.325v0c-0.5-0.653-1.029-1.082-1.588-1.287-0.554-0.209-1.06-0.138-1.518 0.213v0c-0.324 0.248-0.521 0.583-0.592 1.004-0.069 0.412 0.029 0.915 0.294 1.507v0l0.798 1.815c0.535 1.19 0.738 2.233 0.61 3.126-0.123 0.89-0.6 1.653-1.431 2.289z" fill="#d3ba92" data-fill-palette-color="accent"></path><path d="M200.647 79.292l-4.408-8.389 1.622-0.701 3.924 7.556c0.94-0.417 1.614-1.034 2.021-1.851 0.413-0.82 0.43-1.757 0.051-2.812v0c-0.39-1.087-1.103-1.845-2.137-2.275-1.035-0.43-2.281-0.383-3.739 0.14v0l-0.575 0.206c-1.357 0.624-2.256 1.467-2.699 2.528-0.442 1.061-0.415 2.282 0.081 3.663v0c0.264 0.735 0.628 1.359 1.093 1.87 0.456 0.507 0.888 0.887 1.296 1.137v0c-0.053 0.235-0.141 0.441-0.266 0.615-0.127 0.168-0.296 0.29-0.507 0.367v0c-0.332 0.119-0.714 0.043-1.143-0.229-0.423-0.274-0.832-0.69-1.228-1.248-0.402-0.556-0.741-1.221-1.019-1.995v0c-0.484-1.349-0.658-2.608-0.521-3.775 0.139-1.161 0.598-2.185 1.377-3.071 0.779-0.886 1.869-1.58 3.269-2.083v0c1.004-0.36 1.949-0.533 2.834-0.519 0.883 0.008 1.69 0.173 2.419 0.496 0.721 0.319 1.358 0.787 1.911 1.403 0.545 0.613 0.969 1.341 1.272 2.186v0c0.383 1.068 0.494 2.089 0.331 3.064-0.167 0.984-0.572 1.855-1.217 2.613-0.647 0.752-1.498 1.317-2.552 1.695v0c-0.384 0.138-0.69 0.15-0.918 0.038-0.231-0.119-0.421-0.329-0.572-0.629z" fill="#d3ba92" data-fill-palette-color="accent"></path><path d="M19.509 134.566l-6.483 2.173 1.024 3.053c0.438 1.308 1.066 2.24 1.883 2.797 0.815 0.551 1.78 0.639 2.895 0.266v0c1.095-0.367 1.795-1.035 2.1-2.005 0.306-0.969 0.215-2.179-0.27-3.628v0c-0.16-0.477-0.341-0.953-0.544-1.429-0.209-0.474-0.411-0.883-0.605-1.227zM12.243 140.398v0l-1.746-5.207 8.87-2.974c0.283-0.095 0.527-0.094 0.731 0.002 0.2 0.105 0.393 0.284 0.578 0.537v0c0.325 0.457 0.65 1.05 0.973 1.78 0.33 0.728 0.614 1.446 0.851 2.155v0c0.743 2.216 0.844 4.023 0.303 5.422-0.532 1.404-1.613 2.379-3.243 2.926v0c-1.043 0.35-2.035 0.417-2.974 0.201-0.941-0.222-1.781-0.728-2.52-1.519-0.74-0.798-1.348-1.905-1.823-3.323zM8.3 146.621l4.645-6.404 1.337 1.325c-0.459 0.705-0.933 1.438-1.424 2.197-0.499 0.755-0.985 1.487-1.456 2.197-0.471 0.71-0.892 1.345-1.263 1.906-0.373 0.555-0.665 0.986-0.877 1.294v0c-0.326 0.031-0.62-0.043-0.88-0.221-0.254-0.18-0.422-0.392-0.504-0.637v0c-0.101-0.303-0.111-0.576-0.027-0.818 0.088-0.252 0.238-0.531 0.449-0.839zM5.232 136.956l5.845-1.96 0.729 2.174-6.638 2.226c-0.073-0.09-0.163-0.218-0.268-0.383-0.103-0.159-0.191-0.344-0.262-0.557v0c-0.132-0.393-0.149-0.713-0.053-0.961 0.096-0.247 0.312-0.427 0.647-0.539z" fill="#d3ba92" data-fill-palette-color="accent"></path><path d="M31.057 173.073l-6.796-6.648 1.327-1.166 6.088 5.997c0.766-0.686 1.217-1.486 1.354-2.398 0.141-0.907-0.132-1.804-0.817-2.691v0c-0.71-0.919-1.626-1.422-2.749-1.508-1.121-0.095-2.294 0.33-3.52 1.278v0l-0.492 0.38c-1.1 1.021-1.696 2.105-1.79 3.25-0.094 1.145 0.31 2.302 1.211 3.468v0c0.482 0.624 1.018 1.107 1.608 1.448 0.6 0.343 1.133 0.572 1.598 0.685v0c0.022 0.24-0.002 0.465-0.072 0.674-0.065 0.205-0.186 0.376-0.364 0.512v0c-0.28 0.216-0.663 0.259-1.15 0.129-0.496-0.132-1.019-0.402-1.566-0.812-0.558-0.411-1.088-0.941-1.59-1.591v0c-0.88-1.14-1.436-2.286-1.666-3.439-0.23-1.153-0.108-2.273 0.366-3.361 0.474-1.087 1.302-2.087 2.485-3.001v0c0.839-0.648 1.682-1.106 2.53-1.375 0.847-0.259 1.667-0.348 2.461-0.265 0.799 0.078 1.554 0.328 2.265 0.748 0.707 0.415 1.335 0.978 1.883 1.688v0c0.698 0.903 1.121 1.846 1.271 2.829 0.145 0.987 0.027 1.941-0.353 2.861-0.385 0.924-1.021 1.729-1.908 2.414v0c-0.328 0.253-0.62 0.359-0.876 0.316-0.252-0.037-0.498-0.178-0.738-0.422z" fill="#d3ba92" data-fill-palette-color="accent"></path><path d="M57.407 191.935v0l-1.613 2.366-1.853-1.262 1.55-2.274c0.589-0.865 0.778-1.661 0.567-2.388-0.213-0.737-0.729-1.385-1.549-1.943v0c-0.618-0.421-1.218-0.715-1.803-0.884-0.58-0.174-1.111-0.276-1.591-0.307v0l-2.731 4.009-1.853-1.263 2.668-3.916c0.222-0.326 0.471-0.546 0.748-0.662 0.271-0.12 0.638-0.17 1.101-0.15v0c0.555 0.041 1.238 0.186 2.047 0.434 0.804 0.244 1.621 0.649 2.452 1.214v0c1.409 0.96 2.3 2.036 2.672 3.227 0.372 1.191 0.101 2.457-0.812 3.799zM43.817 191.972l3.586-5.263 1.853 1.263-4.04 5.928c-0.096-0.016-0.236-0.058-0.42-0.126-0.178-0.064-0.36-0.159-0.545-0.285v0c-0.326-0.222-0.527-0.458-0.603-0.707-0.086-0.248-0.03-0.518 0.169-0.81zM51.227 197.022l3.587-5.263 1.852 1.262-4.039 5.929c-0.096-0.016-0.239-0.06-0.429-0.132-0.19-0.072-0.369-0.165-0.537-0.28v0c-0.342-0.233-0.549-0.473-0.62-0.718-0.075-0.24-0.013-0.506 0.186-0.798z" fill="#d3ba92" data-fill-palette-color="accent"></path><path d="M74.935 204.98l1.15-3.836 2.148 0.644-1.109 3.7c-0.215 0.716-0.162 1.285 0.158 1.707 0.329 0.418 0.851 0.734 1.567 0.948v0c0.299 0.09 0.653 0.139 1.062 0.148 0.411 0.003 0.761-0.031 1.051-0.099v0c0.077 0.144 0.138 0.307 0.182 0.49 0.036 0.188 0.022 0.389-0.042 0.605v0c-0.119 0.397-0.447 0.65-0.983 0.758-0.545 0.113-1.227 0.047-2.047-0.199v0c-1.256-0.377-2.187-0.961-2.794-1.752-0.615-0.787-0.729-1.825-0.343-3.114zM83.052 199.659l-4.88-1.464 0.529-1.766 5.447 1.633c0.031 0.087 0.051 0.221 0.061 0.401 0.005 0.172-0.019 0.349-0.075 0.531v0c-0.086 0.286-0.225 0.489-0.416 0.609-0.19 0.113-0.412 0.132-0.666 0.056zM80.671 193.657l-2.678 8.932-2.148-0.644 2.912-9.712c0.103-0.012 0.255-0.012 0.458-0.001 0.2 0.018 0.408 0.059 0.623 0.122v0c0.371 0.111 0.628 0.27 0.772 0.477 0.144 0.206 0.164 0.482 0.061 0.826z" fill="#d3ba92" data-fill-palette-color="accent"></path><path d="M109.127 206.734v0l-6.695-0.07c-0.053-0.13-0.099-0.266-0.138-0.409-0.032-0.143-0.048-0.306-0.046-0.49v0c0.003-0.319 0.094-0.556 0.272-0.711 0.178-0.161 0.417-0.24 0.716-0.237v0l6.695 0.071c0.04 0.116 0.082 0.249 0.128 0.398 0.039 0.15 0.058 0.31 0.056 0.48v0c-0.003 0.299-0.087 0.536-0.252 0.711-0.172 0.175-0.417 0.261-0.736 0.257z" fill="#d3ba92" data-fill-palette-color="accent"></path><path d="M132.386 208.351l-2.555-8.659 2.18-0.643 2.84 9.627c-0.066 0.041-0.191 0.12-0.376 0.238-0.176 0.123-0.362 0.213-0.558 0.271v0c-0.358 0.106-0.678 0.08-0.958-0.079-0.282-0.165-0.473-0.416-0.573-0.755zM130.157 192.764l2.791 9.461-2.188 0.614-2.497-8.464c-0.106-0.358-0.083-0.677 0.069-0.956 0.152-0.278 0.407-0.471 0.765-0.576v0c0.195-0.058 0.399-0.089 0.609-0.095 0.217-0.007 0.368-0.002 0.451 0.016zM139.208 199.497l-7.496 2.211-0.539-1.828 8.092-2.387c0.073 0.056 0.16 0.158 0.26 0.306 0.1 0.148 0.176 0.309 0.229 0.485v0c0.085 0.287 0.082 0.542-0.008 0.767-0.091 0.218-0.271 0.367-0.538 0.446zM142.382 206.688l-8.465 2.497-0.539-1.828 9.061-2.673c0.073 0.056 0.158 0.152 0.254 0.287 0.098 0.141 0.176 0.309 0.234 0.504v0c0.085 0.287 0.081 0.539-0.01 0.758-0.09 0.225-0.268 0.377-0.535 0.455zM137.972 192.244l-8.328 2.456-0.547-1.857 8.923-2.632c0.073 0.056 0.16 0.158 0.26 0.305 0.105 0.139 0.184 0.3 0.238 0.483v0c0.085 0.287 0.083 0.546-0.004 0.777-0.088 0.231-0.268 0.387-0.542 0.468z" fill="#d3ba92" data-fill-palette-color="accent"></path><path d="M167.368 193.634v0c-1.438 1.001-2.751 1.493-3.939 1.476-1.188-0.018-2.156-0.564-2.905-1.641v0c-0.691-0.992-0.886-1.986-0.586-2.982 0.3-0.995 1.002-1.956 2.104-2.88v0l3.043-2.603-0.448-0.644c-0.532-0.764-1.153-1.163-1.865-1.197-0.702-0.033-1.443 0.222-2.223 0.765v0c-0.63 0.439-1.168 0.95-1.614 1.534-0.446 0.584-0.813 1.145-1.1 1.684v0c-0.196-0.021-0.395-0.068-0.597-0.143-0.201-0.075-0.356-0.191-0.464-0.347v0c-0.276-0.396-0.266-0.858 0.028-1.386v0c0.265-0.499 0.63-0.997 1.095-1.495 0.463-0.488 1.001-0.946 1.615-1.372v0c1.338-0.932 2.605-1.371 3.801-1.318 1.196 0.053 2.242 0.724 3.138 2.012v0l3.797 5.452c0.233 0.335 0.347 0.636 0.343 0.904-0.01 0.272-0.09 0.572-0.242 0.901v0c-0.228 0.457-0.591 0.982-1.088 1.576-0.493 0.6-1.124 1.168-1.893 1.704zM166.308 192.112v0c0.647-0.45 1.135-0.885 1.464-1.305 0.331-0.429 0.545-0.769 0.643-1.019v0l-2.323-3.337-2.642 2.286c-0.755 0.616-1.223 1.203-1.406 1.762-0.179 0.563-0.076 1.121 0.308 1.673v0c0.392 0.563 0.926 0.849 1.603 0.858 0.682 0.005 1.467-0.301 2.353-0.918z" fill="#d3ba92" data-fill-palette-color="accent"></path><path d="M190.625 164.568v0c0.949 0.727 1.425 1.643 1.426 2.747-0.003 1.11-0.508 2.323-1.516 3.639v0c-0.863 1.127-1.743 1.913-2.639 2.356-0.896 0.444-1.551 0.506-1.967 0.188v0c-0.178-0.136-0.315-0.314-0.412-0.534-0.098-0.229-0.124-0.48-0.078-0.752v0c0.586-0.184 1.202-0.453 1.848-0.805 0.646-0.352 1.232-0.871 1.756-1.556v0c1.181-1.543 1.254-2.71 0.219-3.504v0c-0.431-0.33-0.884-0.472-1.357-0.423-0.473 0.048-0.963 0.28-1.471 0.697v0l-1.898 1.473c-0.92 0.733-1.772 1.129-2.553 1.189-0.787 0.056-1.529-0.182-2.225-0.715v0c-0.787-0.603-1.226-1.444-1.316-2.523-0.086-1.084 0.371-2.278 1.371-3.583v0c0.533-0.696 1.068-1.249 1.605-1.659 0.537-0.41 1.03-0.674 1.479-0.793 0.455-0.114 0.817-0.067 1.087 0.14v0c0.189 0.145 0.322 0.323 0.398 0.536 0.071 0.209 0.083 0.423 0.035 0.642v0c-0.255 0.087-0.558 0.215-0.909 0.382-0.351 0.168-0.717 0.4-1.1 0.698-0.382 0.298-0.742 0.668-1.081 1.111v0c-0.5 0.653-0.776 1.276-0.828 1.868-0.056 0.599 0.145 1.074 0.604 1.425v0c0.324 0.248 0.698 0.351 1.124 0.309 0.42-0.046 0.882-0.274 1.384-0.685v0l1.558-1.246c1.01-0.827 1.963-1.295 2.859-1.405 0.901-0.115 1.766 0.146 2.597 0.783z" fill="#d3ba92" data-fill-palette-color="accent"></path><path d="M201.202 134.993l-1.946 9.306-1.697-0.49 1.779-8.359c-0.991-0.276-1.907-0.227-2.749 0.149-0.84 0.369-1.45 1.082-1.829 2.137v0c-0.393 1.093-0.323 2.136 0.208 3.128 0.523 0.996 1.513 1.756 2.971 2.28v0l0.585 0.21c1.452 0.377 2.687 0.297 3.702-0.24 1.016-0.537 1.773-1.5 2.272-2.887v0c0.266-0.742 0.385-1.453 0.356-2.135-0.033-0.691-0.128-1.262-0.283-1.715v0c0.19-0.148 0.393-0.249 0.606-0.302 0.208-0.055 0.417-0.045 0.628 0.031v0c0.332 0.119 0.575 0.419 0.727 0.9 0.156 0.489 0.209 1.075 0.159 1.757-0.046 0.691-0.208 1.423-0.486 2.196v0c-0.487 1.355-1.155 2.44-2.002 3.255-0.848 0.814-1.858 1.314-3.03 1.499-1.171 0.186-2.46 0.026-3.866-0.479v0c-0.997-0.358-1.838-0.823-2.521-1.393-0.674-0.574-1.19-1.218-1.547-1.931-0.364-0.715-0.56-1.486-0.588-2.312-0.03-0.819 0.106-1.651 0.409-2.495v0c0.386-1.074 0.953-1.939 1.701-2.594 0.754-0.653 1.621-1.067 2.6-1.242 0.986-0.173 2.006-0.07 3.062 0.309v0c0.39 0.14 0.636 0.33 0.738 0.569 0.104 0.232 0.118 0.515 0.041 0.848z" fill="#d3ba92" data-fill-palette-color="accent"></path><path d="M0 107.038c0-3.648 2.958-6.606 6.606-6.606 3.648 0 6.606 2.958 6.606 6.606 0 3.648-2.958 6.606-6.606 6.606-3.648 0-6.606-2.958-6.606-6.606z" fill="#d3ba92" data-fill-palette-color="accent"></path><path d="M198.181 107.038c0-3.648 2.958-6.606 6.606-6.606 3.648 0 6.606 2.958 6.606 6.606 0 3.648-2.958 6.606-6.606 6.606-3.648 0-6.606-2.958-6.606-6.606z" fill="#d3ba92" data-fill-palette-color="accent"></path></g><g id="text-1"></g></svg></g></svg></g><g></g></svg></g><defs></defs></svg><rect width="321.2985482971866" height="247.2" fill="none" stroke="none" visibility="hidden"></rect></g></svg></g></svg>